<mxfile host="app.diagrams.net" modified="2023-08-29T08:20:54.817Z" agent="Mozilla/5.0 (Macintosh; Intel Mac OS X 10_15_7) AppleWebKit/537.36 (KHTML, like Gecko) Chrome/116.0.0.0 Safari/537.36" etag="nZLmOhv4jrl7NEaImqMY" version="21.6.9" type="github">
  <diagram name="Page-1" id="e7e014a7-5840-1c2e-5031-d8a46d1fe8dd">
    <mxGraphModel dx="1546" dy="830" grid="1" gridSize="10" guides="1" tooltips="1" connect="1" arrows="1" fold="1" page="1" pageScale="1" pageWidth="1169" pageHeight="826" background="none" math="0" shadow="0">
      <root>
        <mxCell id="0" />
        <mxCell id="1" parent="0" />
        <mxCell id="5" value="" style="ellipse;shape=startState;fillColor=#000000;strokeColor=#ff0000;" parent="1" vertex="1">
          <mxGeometry x="300" y="20" width="30" height="30" as="geometry" />
        </mxCell>
        <mxCell id="6" value="" style="edgeStyle=elbowEdgeStyle;elbow=horizontal;verticalAlign=bottom;endArrow=open;endSize=8;strokeColor=#FF0000;endFill=1;rounded=0" parent="1" source="5" target="7" edge="1">
          <mxGeometry x="110" y="190" as="geometry">
            <mxPoint x="305" y="90" as="targetPoint" />
          </mxGeometry>
        </mxCell>
        <mxCell id="7" value="从请求中获取Token" style="" parent="1" vertex="1">
          <mxGeometry x="260" y="90" width="110" height="60" as="geometry" />
        </mxCell>
        <mxCell id="8" value="解析Header" style="" parent="1" vertex="1">
          <mxGeometry x="260" y="200" width="110" height="50" as="geometry" />
        </mxCell>
        <mxCell id="9" value="" style="endArrow=open;strokeColor=#FF0000;endFill=1;rounded=0" parent="1" source="7" target="8" edge="1">
          <mxGeometry relative="1" as="geometry" />
        </mxCell>
        <mxCell id="10" value="解析Payload" style="" parent="1" vertex="1">
          <mxGeometry x="260" y="280" width="110" height="50" as="geometry" />
        </mxCell>
        <mxCell id="11" value="" style="endArrow=open;strokeColor=#FF0000;endFill=1;rounded=0" parent="1" source="8" target="10" edge="1">
          <mxGeometry relative="1" as="geometry" />
        </mxCell>
        <mxCell id="c-rldJZW2mYp9z67KlfX-41" value="解析Token加密函数" style="" vertex="1" parent="1">
          <mxGeometry x="260" y="360" width="110" height="50" as="geometry" />
        </mxCell>
        <mxCell id="c-rldJZW2mYp9z67KlfX-42" value="获取密钥ID" style="" vertex="1" parent="1">
          <mxGeometry x="260" y="430" width="110" height="50" as="geometry" />
        </mxCell>
        <mxCell id="c-rldJZW2mYp9z67KlfX-44" value="从缓存中获取密钥" style="" vertex="1" parent="1">
          <mxGeometry x="440" y="430" width="110" height="50" as="geometry" />
        </mxCell>
        <mxCell id="c-rldJZW2mYp9z67KlfX-47" value="解析Signature" style="" vertex="1" parent="1">
          <mxGeometry x="440" y="360" width="110" height="50" as="geometry" />
        </mxCell>
        <mxCell id="c-rldJZW2mYp9z67KlfX-49" value="验证Signature是否合法" style="rhombus;whiteSpace=wrap;html=1;fontColor=#000000;fillColor=#ffffc0;strokeColor=#ff0000;" vertex="1" parent="1">
          <mxGeometry x="445" y="275" width="100" height="60" as="geometry" />
        </mxCell>
        <mxCell id="c-rldJZW2mYp9z67KlfX-51" value="yes" style="edgeStyle=orthogonalEdgeStyle;html=1;align=left;verticalAlign=top;endArrow=open;endSize=8;strokeColor=#ff0000;rounded=0;entryX=0.5;entryY=1;entryDx=0;entryDy=0;" edge="1" source="c-rldJZW2mYp9z67KlfX-49" parent="1" target="c-rldJZW2mYp9z67KlfX-53">
          <mxGeometry x="0.0844" y="-10" relative="1" as="geometry">
            <mxPoint x="500" y="160" as="targetPoint" />
            <mxPoint as="offset" />
          </mxGeometry>
        </mxCell>
        <mxCell id="38" value="" style="ellipse;shape=endState;fillColor=#000000;strokeColor=#ff0000" parent="1" vertex="1">
          <mxGeometry x="730" y="185" width="30" height="30" as="geometry" />
        </mxCell>
        <mxCell id="c-rldJZW2mYp9z67KlfX-53" value="Secret是否过期" style="rhombus;whiteSpace=wrap;html=1;fontColor=#000000;fillColor=#ffffc0;strokeColor=#ff0000;" vertex="1" parent="1">
          <mxGeometry x="445" y="170" width="100" height="60" as="geometry" />
        </mxCell>
        <mxCell id="c-rldJZW2mYp9z67KlfX-54" value="设置Header" style="" vertex="1" parent="1">
          <mxGeometry x="440" y="90" width="110" height="50" as="geometry" />
        </mxCell>
        <mxCell id="c-rldJZW2mYp9z67KlfX-55" value="" style="edgeStyle=orthogonalEdgeStyle;html=1;align=left;verticalAlign=bottom;endArrow=open;endSize=8;strokeColor=#ff0000;rounded=0;exitX=1;exitY=0.5;exitDx=0;exitDy=0;" edge="1" parent="1" source="c-rldJZW2mYp9z67KlfX-49" target="c-rldJZW2mYp9z67KlfX-52">
          <mxGeometry x="-1" relative="1" as="geometry">
            <mxPoint x="590" y="220" as="targetPoint" />
            <mxPoint x="545" y="305" as="sourcePoint" />
          </mxGeometry>
        </mxCell>
        <mxCell id="c-rldJZW2mYp9z67KlfX-57" value="no" style="edgeLabel;html=1;align=center;verticalAlign=middle;resizable=0;points=[];" vertex="1" connectable="0" parent="c-rldJZW2mYp9z67KlfX-55">
          <mxGeometry x="-0.5086" y="-1" relative="1" as="geometry">
            <mxPoint as="offset" />
          </mxGeometry>
        </mxCell>
        <mxCell id="c-rldJZW2mYp9z67KlfX-52" value="返回错误结果" style="" vertex="1" parent="1">
          <mxGeometry x="585" y="175" width="110" height="50" as="geometry" />
        </mxCell>
        <mxCell id="c-rldJZW2mYp9z67KlfX-56" value="yes" style="edgeStyle=orthogonalEdgeStyle;html=1;align=left;verticalAlign=top;endArrow=open;endSize=8;strokeColor=#ff0000;rounded=0;entryX=0.5;entryY=1;entryDx=0;entryDy=0;exitX=0.5;exitY=0;exitDx=0;exitDy=0;" edge="1" parent="1" source="c-rldJZW2mYp9z67KlfX-53" target="c-rldJZW2mYp9z67KlfX-54">
          <mxGeometry x="0.0844" y="-10" relative="1" as="geometry">
            <mxPoint x="505" y="240" as="targetPoint" />
            <mxPoint x="505" y="285" as="sourcePoint" />
            <mxPoint as="offset" />
          </mxGeometry>
        </mxCell>
        <mxCell id="c-rldJZW2mYp9z67KlfX-58" value="" style="edgeStyle=orthogonalEdgeStyle;html=1;align=left;verticalAlign=bottom;endArrow=open;endSize=8;strokeColor=#ff0000;rounded=0;exitX=1;exitY=0.5;exitDx=0;exitDy=0;entryX=0;entryY=0.5;entryDx=0;entryDy=0;" edge="1" parent="1" source="c-rldJZW2mYp9z67KlfX-53" target="c-rldJZW2mYp9z67KlfX-52">
          <mxGeometry x="-1" relative="1" as="geometry">
            <mxPoint x="650" y="235" as="targetPoint" />
            <mxPoint x="555" y="315" as="sourcePoint" />
          </mxGeometry>
        </mxCell>
        <mxCell id="c-rldJZW2mYp9z67KlfX-59" value="no" style="edgeLabel;html=1;align=center;verticalAlign=middle;resizable=0;points=[];" vertex="1" connectable="0" parent="c-rldJZW2mYp9z67KlfX-58">
          <mxGeometry x="-0.5086" y="-1" relative="1" as="geometry">
            <mxPoint as="offset" />
          </mxGeometry>
        </mxCell>
        <mxCell id="c-rldJZW2mYp9z67KlfX-60" value="" style="endArrow=open;strokeColor=#FF0000;endFill=1;rounded=0;exitX=1;exitY=0.5;exitDx=0;exitDy=0;entryX=0;entryY=0.5;entryDx=0;entryDy=0;" edge="1" parent="1" source="c-rldJZW2mYp9z67KlfX-52" target="38">
          <mxGeometry relative="1" as="geometry">
            <mxPoint x="325" y="160" as="sourcePoint" />
            <mxPoint x="325" y="210" as="targetPoint" />
          </mxGeometry>
        </mxCell>
        <mxCell id="c-rldJZW2mYp9z67KlfX-61" value="" style="endArrow=open;strokeColor=#FF0000;endFill=1;rounded=0;exitX=1;exitY=0.5;exitDx=0;exitDy=0;entryX=0;entryY=0.5;entryDx=0;entryDy=0;" edge="1" parent="1" source="c-rldJZW2mYp9z67KlfX-54" target="c-rldJZW2mYp9z67KlfX-62">
          <mxGeometry relative="1" as="geometry">
            <mxPoint x="705" y="210" as="sourcePoint" />
            <mxPoint x="610" y="115" as="targetPoint" />
          </mxGeometry>
        </mxCell>
        <mxCell id="c-rldJZW2mYp9z67KlfX-62" value="" style="ellipse;shape=endState;fillColor=#000000;strokeColor=#ff0000" vertex="1" parent="1">
          <mxGeometry x="625" y="100" width="30" height="30" as="geometry" />
        </mxCell>
        <mxCell id="c-rldJZW2mYp9z67KlfX-63" value="" style="endArrow=open;strokeColor=#FF0000;endFill=1;rounded=0;exitX=0.5;exitY=1;exitDx=0;exitDy=0;" edge="1" parent="1" source="10">
          <mxGeometry relative="1" as="geometry">
            <mxPoint x="314.5" y="330" as="sourcePoint" />
            <mxPoint x="315" y="360" as="targetPoint" />
          </mxGeometry>
        </mxCell>
        <mxCell id="c-rldJZW2mYp9z67KlfX-64" value="" style="endArrow=open;strokeColor=#FF0000;endFill=1;rounded=0;entryX=0.5;entryY=0;entryDx=0;entryDy=0;exitX=0.5;exitY=1;exitDx=0;exitDy=0;" edge="1" parent="1" source="c-rldJZW2mYp9z67KlfX-41" target="c-rldJZW2mYp9z67KlfX-42">
          <mxGeometry relative="1" as="geometry">
            <mxPoint x="335" y="170" as="sourcePoint" />
            <mxPoint x="335" y="220" as="targetPoint" />
          </mxGeometry>
        </mxCell>
        <mxCell id="c-rldJZW2mYp9z67KlfX-65" value="" style="endArrow=open;strokeColor=#FF0000;endFill=1;rounded=0;exitX=1;exitY=0.5;exitDx=0;exitDy=0;entryX=0;entryY=0.5;entryDx=0;entryDy=0;" edge="1" parent="1" source="c-rldJZW2mYp9z67KlfX-42" target="c-rldJZW2mYp9z67KlfX-44">
          <mxGeometry relative="1" as="geometry">
            <mxPoint x="345" y="180" as="sourcePoint" />
            <mxPoint x="345" y="230" as="targetPoint" />
          </mxGeometry>
        </mxCell>
        <mxCell id="c-rldJZW2mYp9z67KlfX-66" value="" style="endArrow=open;strokeColor=#FF0000;endFill=1;rounded=0;exitX=0.5;exitY=0;exitDx=0;exitDy=0;entryX=0.5;entryY=1;entryDx=0;entryDy=0;" edge="1" parent="1" source="c-rldJZW2mYp9z67KlfX-44" target="c-rldJZW2mYp9z67KlfX-47">
          <mxGeometry relative="1" as="geometry">
            <mxPoint x="355" y="190" as="sourcePoint" />
            <mxPoint x="355" y="240" as="targetPoint" />
          </mxGeometry>
        </mxCell>
        <mxCell id="c-rldJZW2mYp9z67KlfX-67" value="" style="endArrow=open;strokeColor=#FF0000;endFill=1;rounded=0;exitX=0.5;exitY=0;exitDx=0;exitDy=0;entryX=0.5;entryY=1;entryDx=0;entryDy=0;" edge="1" parent="1" source="c-rldJZW2mYp9z67KlfX-47" target="c-rldJZW2mYp9z67KlfX-49">
          <mxGeometry relative="1" as="geometry">
            <mxPoint x="365" y="200" as="sourcePoint" />
            <mxPoint x="365" y="250" as="targetPoint" />
          </mxGeometry>
        </mxCell>
      </root>
    </mxGraphModel>
  </diagram>
</mxfile>
